IKResults
version=1
nRows=32
nColumns=11
inDegrees=yes

Units are S.I. units (second, meters, Newtons, ...)
If the header above contains a line with 'inDegrees', this indicates whether rotational values are in degrees (yes) or radians (no).

endheader
time	pelvis_tilt	pelvis_tx	pelvis_ty	hip_flexion_r	knee_angle_r	ankle_angle_r	hip_flexion_l	knee_angle_l	ankle_angle_l	lumbar_extension
     14.36666667	    -20.91858431	     -0.02744954	      0.89277769	     40.74746545	    -72.85450391	     12.43008731	     27.80241024	    -14.56859760	     12.89619677	     19.88538391
     14.40000000	    -20.89933624	      0.00134160	      0.89445999	     44.78834353	    -69.00275807	     17.35572497	     25.04519833	    -12.89430873	     13.58667251	     19.57349303
     14.43333333	    -21.61529384	      0.02855942	      0.89368992	     48.46876357	    -62.10049415	     19.34775965	     23.41290839	    -11.65318787	     14.43077816	     20.15652763
     14.46666667	    -22.52793513	      0.05528524	      0.89118128	     51.00816404	    -53.12231877	     18.24038296	     22.18721336	    -10.79528175	     15.61548334	     21.04602333
     14.50000000	    -23.54048308	      0.08278017	      0.88724606	     52.56215378	    -43.41413503	     15.05280399	     21.06335143	    -10.14197861	     17.06680827	     22.12180206
     14.53333333	    -24.44746121	      0.11194251	      0.88247459	     53.48517114	    -34.32380622	     11.15099858	     19.68839006	     -9.53043176	     18.55890723	     23.04870123
     14.56666667	    -25.03281125	      0.14300941	      0.87744927	     53.98387172	    -26.65915260	      7.65021941	     17.88382137	     -9.07907410	     19.98478808	     23.48556408
     14.60000000	    -25.54609192	      0.17601599	      0.87197978	     54.36127399	    -20.54923105	      4.96947998	     16.15024374	     -9.31397072	     21.42128170	     23.75970207
     14.63333333	    -25.42032668	      0.21089842	      0.86708337	     54.00773798	    -16.15196478	      3.02296404	     14.14609700	    -10.73604685	     22.83933777	     23.25792137
     14.66666667	    -25.01332909	      0.24769714	      0.86265352	     53.31636865	    -13.77669493	      1.75184568	     12.53574128	    -13.85101231	     23.94816420	     22.54368899
     14.70000000	    -24.39810213	      0.28613445	      0.85917987	     52.35748279	    -13.43374897	      1.26981578	     11.64899771	    -18.90306159	     24.19187621	     21.80143931
     14.73333333	    -23.64228640	      0.32575819	      0.85728144	     50.93333796	    -14.30016127	      1.37404366	     11.82188548	    -25.97015559	     22.68325696	     21.17222222
     14.76666667	    -22.99655873	      0.36581175	      0.85679555	     49.32015935	    -15.99209840	      2.16877957	     13.59558524	    -35.03746676	     18.81015211	     20.91658749
     14.80000000	    -22.74987467	      0.40559689	      0.85742466	     47.71041383	    -17.86887108	      3.39094525	     17.10102954	    -45.06518594	     12.34165727	     21.24000258
     14.83333333	    -22.49202469	      0.44470231	      0.85961624	     45.52030565	    -19.28261978	      4.88855605	     21.36564997	    -54.49927265	      4.92327521	     21.46437416
     14.86666667	    -22.04164163	      0.48315756	      0.86336987	     42.48989132	    -19.84320509	      6.31589267	     25.72424044	    -62.41783734	     -0.88310983	     21.28409007
     14.90000000	    -21.45039373	      0.52091773	      0.86814333	     38.71925492	    -19.38669014	      7.25051489	     30.05710406	    -68.70847170	     -3.32766100	     20.76221855
     14.93333333	    -20.21886470	      0.55764989	      0.87412478	     33.89639266	    -18.09142151	      7.70910355	     33.74815792	    -73.20739088	     -2.20181837	     19.32706789
     14.96666667	    -19.32123920	      0.59289943	      0.87947782	     29.46601313	    -16.60077655	      8.05294434	     37.72585200	    -75.46262333	      1.59011926	     18.18600604
     15.00000000	    -19.11462050	      0.62623230	      0.88340984	     26.15529755	    -15.47351995	      9.00174191	     42.10643092	    -74.70751330	      6.78658811	     17.71010295
     15.03333333	    -19.44006416	      0.65763661	      0.88595796	     23.88160256	    -14.85550910	     10.86488743	     46.27557904	    -70.22893763	     11.49690447	     17.60679645
     15.06666667	    -20.32301023	      0.68797477	      0.88668875	     22.47768723	    -14.52214024	     13.24463464	     49.71053615	    -62.01603176	     13.88627691	     17.92469437
     15.10000000	    -20.94121395	      0.71856766	      0.88603842	     20.72359613	    -14.01823442	     15.71783426	     51.24070958	    -51.10731649	     13.58657046	     17.85677553
     15.13333333	    -21.04307366	      0.75054089	      0.88372619	     18.12273828	    -13.08316749	     18.04225731	     50.87188020	    -39.20038249	     11.25657111	     17.36568857
     15.16666667	    -20.36525622	      0.78426723	      0.87996936	     14.45032676	    -11.87557689	     20.28714140	     49.06481145	    -28.17068505	      7.87370199	     16.30369243
     15.20000000	    -19.32185955	      0.81955017	      0.87503578	     10.38629534	    -10.80622234	     22.29657366	     46.81579318	    -19.21414296	      4.20765999	     15.18069549
     15.23333333	    -18.28483813	      0.85581602	      0.86987373	      6.72021146	    -10.53619843	     23.91917826	     44.70571670	    -12.86318979	      0.84951361	     14.32706193
     15.26666667	    -17.50597931	      0.89233674	      0.86569037	      4.22630486	    -11.96316205	     25.05719016	     43.00069177	     -9.18023419	     -1.88601811	     13.87983694
     15.30000000	    -17.20169277	      0.92867866	      0.86317237	      3.61979404	    -16.01896584	     25.57433361	     41.91478502	     -7.92346932	     -3.78629014	     13.96414950
     15.33333333	    -16.67700475	      0.96456521	      0.86360711	      4.32028230	    -22.88806528	     24.68477218	     40.77560608	     -8.79462918	     -4.54897010	     13.63558668
     15.36666667	    -16.40173664	      1.00040535	      0.86572434	      6.68378156	    -32.06216776	     21.46729828	     40.11379646	    -11.52153182	     -3.66014770	     13.46681979
     15.40000000	    -15.49573908	      1.03635817	      0.87026285	      9.21138810	    -41.88646981	     15.44459511	     38.59515093	    -14.89373442	     -1.54338996	     12.43884813
